<svg width="18" height="19" viewBox="0 0 18 19" fill="none" xmlns="http://www.w3.org/2000/svg">
<path d="M17.8697 7.40455L17.8699 7.40428L17.869 7.40308C17.7383 7.02752 17.513 6.68705 17.2089 6.41789L16.6491 5.92269C16.6177 5.89492 16.5857 5.86795 16.5528 5.84191L9.37815 0.151672C9.25077 0.0506031 9.09763 0 8.94396 0C8.78909 0 8.63381 0.0514029 8.50615 0.154342L1.39711 5.87158L0.783996 6.4186C0.481584 6.6883 0.258482 7.02836 0.128975 7.40338L0.127507 7.40552L0.128041 7.40579C0.0445943 7.64865 0 7.90553 0 8.16789V16.1458C0 17.2494 0.894825 18.1442 1.99845 18.1442H16.0015C17.1052 18.1442 18 17.2494 18 16.1458V8.17404C18 7.90902 17.9546 7.64945 17.8697 7.40486L17.8697 7.40455ZM16.575 8.44556C16.5926 8.56132 16.6025 8.67908 16.6025 8.79792V15.8817L12.4688 11.7476L16.575 8.44556ZM8.62202 14.1423C8.74939 14.2434 8.90253 14.294 9.0562 14.294C9.21108 14.294 9.36636 14.2426 9.49401 14.1396L11.3728 12.6288L15.4908 16.7461H2.52781L6.67586 12.598L8.62202 14.1423ZM2.27314 6.95977L8.94673 1.59355L15.7136 6.96011L15.7151 6.96131C15.7947 7.02447 15.8692 7.09256 15.9389 7.16439L15.7278 7.33462L9.05385 12.7008L2.28695 7.33428L2.06024 7.15457C2.12686 7.08581 2.19749 7.02065 2.2732 6.95991L2.27314 6.95977ZM1.42493 8.43483L5.57332 11.7246L1.39759 15.9007V8.78688C1.39759 8.66819 1.4072 8.55056 1.42483 8.43493L1.42493 8.43483Z" fill="#224E89"/>
<path d="M7.03535 10.1806C6.54402 9.71133 6.29847 9.01276 6.29847 8.19713C6.29847 7.35518 6.57632 6.64168 7.13229 6.05663C7.68826 5.4713 8.38545 5.17889 9.2246 5.17889C10.0079 5.17889 10.618 5.39812 11.055 5.83658C11.4919 6.27503 11.7105 6.83753 11.7105 7.52393C11.7105 8.02541 11.6343 8.43195 11.4817 8.74264C11.3292 9.05373 11.1356 9.20889 10.9009 9.20889C10.6778 9.20889 10.5666 9.00367 10.5666 8.59286C10.5666 8.20862 10.6327 7.39175 10.7646 6.14194H9.77471L9.73078 6.57732H9.71315C9.60154 6.23392 9.3273 6.06261 8.89045 6.06261C8.4066 6.06261 7.99296 6.27316 7.64955 6.69401C7.30615 7.1151 7.13484 7.66119 7.13484 8.33289C7.13484 8.85212 7.25861 9.25855 7.50655 9.55161C7.75448 9.84494 8.0808 9.99153 8.48549 9.99153C9.02529 9.99153 9.39768 9.71129 9.60313 9.15119H9.62943C9.64412 9.4006 9.74212 9.60315 9.92436 9.75829C10.1062 9.91384 10.3425 9.99154 10.6329 9.99154C11.2224 9.99154 11.7168 9.76216 12.1157 9.30313C12.5147 8.84409 12.7141 8.23446 12.7141 7.47492C12.7141 6.55073 12.3878 5.80664 11.735 5.24203C11.0823 4.67738 10.228 4.39502 9.1719 4.39502C8.03088 4.39502 7.09815 4.75873 6.37343 5.48638C5.64872 6.21403 5.28662 7.11152 5.28662 8.17923C5.28662 8.4317 5.30691 8.67125 5.34617 8.89875L7.03535 10.1806ZM9.4091 8.7735C9.25062 9.06991 9.03354 9.21798 8.75808 9.21798C8.57917 9.21798 8.43324 9.1396 8.32027 8.98259C8.20719 8.82558 8.15098 8.60634 8.15098 8.32491C8.15098 7.9289 8.23376 7.58057 8.39945 7.27989C8.56514 6.97935 8.78024 6.82889 9.04391 6.82889C9.22575 6.82889 9.37168 6.89645 9.48171 7.0313C9.59173 7.16615 9.64674 7.35107 9.64674 7.5858C9.64687 8.08127 9.5677 8.47714 9.40908 8.77355L9.4091 8.7735Z" fill="#224E89"/>
</svg>
