<svg width="30" height="35" viewBox="0 0 30 35" fill="none" xmlns="http://www.w3.org/2000/svg">
<path d="M23.2327 34.9993C23.6177 34.9993 23.9326 34.6844 23.9326 34.2994L23.9329 12.6839C27.111 12.3338 29.5959 9.63214 29.5959 6.36293C29.5959 2.85582 26.7401 0 23.233 0C19.9641 0 17.2621 2.48495 16.912 5.66304H0.700185C0.315229 5.66304 0.000292965 5.97797 0.000292965 6.36293L0 34.3001C0 34.6851 0.314936 35 0.699892 35L23.2327 34.9993ZM23.2327 1.39971C25.9696 1.39971 28.1956 3.62568 28.1956 6.36255C28.1956 9.09942 25.9696 11.3254 23.2327 11.3254C20.4958 11.3254 18.2699 9.09942 18.2699 6.36255C18.2699 3.62568 20.4958 1.39971 23.2327 1.39971ZM1.39971 7.06274H16.9118C17.2338 10.0097 19.5857 12.3616 22.5326 12.6836V33.5993H1.40008L1.39971 7.06274Z" fill="white"/>
<path d="M6.2447 10.444L4.79572 11.8861L4.53674 11.6271C4.2637 11.354 3.82279 11.354 3.54975 11.6271C3.27671 11.9001 3.27671 12.341 3.54975 12.6141L4.30559 13.3699C4.44563 13.5099 4.62053 13.5729 4.80246 13.5729C4.98439 13.5729 5.15958 13.5029 5.29933 13.3699L7.23821 11.431C7.51125 11.158 7.51125 10.7171 7.23821 10.444C6.96575 10.171 6.5178 10.171 6.24477 10.444L6.2447 10.444Z" fill="white"/>
<path d="M6.24456 16.0573L4.80255 17.4993L4.54357 17.2404C4.27053 16.9673 3.82962 16.9673 3.55659 17.2404C3.28355 17.5134 3.28354 17.9543 3.55659 18.2273L4.31243 18.9832C4.45247 19.1232 4.62736 19.1862 4.8093 19.1862C4.99123 19.1862 5.16642 19.1162 5.30617 18.9832L7.24504 17.0443C7.51809 16.7713 7.51809 16.3304 7.24504 16.0573C6.97259 15.7843 6.51761 15.7843 6.24456 16.0573L6.24456 16.0573Z" fill="white"/>
<path d="M6.2447 21.671L4.79572 23.12L4.53674 22.861C4.2637 22.5879 3.82279 22.5879 3.54975 22.861C3.27671 23.134 3.27671 23.5749 3.54975 23.848L4.30559 24.6038C4.44563 24.7439 4.62053 24.8068 4.80246 24.8068C4.98439 24.8068 5.15958 24.7368 5.29933 24.6038L7.23821 22.6649C7.51125 22.3919 7.51125 21.951 7.23821 21.6779C6.96575 21.4049 6.5178 21.3982 6.24477 21.6709L6.2447 21.671Z" fill="white"/>
<path d="M6.2447 27.2858L4.79572 28.7279L4.53674 28.4689C4.2637 28.1958 3.82278 28.1958 3.54975 28.4689C3.27671 28.7419 3.27671 29.1828 3.54975 29.4559L4.30559 30.2117C4.44563 30.3517 4.62053 30.4147 4.80246 30.4147C4.98439 30.4147 5.15958 30.3447 5.29933 30.2117L7.23821 28.2728C7.51125 27.9998 7.51125 27.5589 7.23821 27.2858C6.96575 27.0128 6.5178 27.0128 6.24477 27.2858L6.2447 27.2858Z" fill="white"/>
<path d="M9.75153 12.6068H15.7014C16.0863 12.6068 16.4013 12.2919 16.4013 11.9069C16.4013 11.522 16.0863 11.207 15.7014 11.207H9.75153C9.36657 11.207 9.05164 11.522 9.05164 11.9069C9.05164 12.2916 9.36657 12.6068 9.75153 12.6068Z" fill="white"/>
<path d="M19.8869 16.8213H9.75153C9.36657 16.8213 9.05164 17.1362 9.05164 17.5212C9.05164 17.9061 9.36657 18.2211 9.75153 18.2211H19.8877C20.2726 18.2211 20.5876 17.9061 20.5876 17.5212C20.5876 17.1365 20.2726 16.8213 19.8874 16.8213H19.8869Z" fill="white"/>
<path d="M19.8869 22.4346H9.75153C9.36657 22.4346 9.05164 22.7495 9.05164 23.1345C9.05164 23.5194 9.36657 23.8344 9.75153 23.8344H19.8877C20.2726 23.8344 20.5876 23.5194 20.5876 23.1345C20.5876 22.7495 20.2726 22.4346 19.8874 22.4346H19.8869Z" fill="white"/>
<path d="M19.8869 28.0557H9.75153C9.36657 28.0557 9.05164 28.3706 9.05164 28.7556C9.05164 29.1405 9.36657 29.4554 9.75153 29.4554H19.8877C20.2726 29.4554 20.5876 29.1405 20.5876 28.7556C20.5876 28.3706 20.2726 28.0557 19.8874 28.0557H19.8869Z" fill="white"/>
<path d="M23.2327 7.06344H25.5846C25.9696 7.06344 26.2845 6.74851 26.2845 6.36355C26.2845 5.97859 25.9696 5.66366 25.5846 5.66366H23.9326V3.8786C23.9326 3.49365 23.6177 3.17871 23.2327 3.17871C22.8478 3.17871 22.5328 3.49365 22.5328 3.8786V6.36355C22.5328 6.74851 22.8478 7.06344 23.2327 7.06344Z" fill="white"/>
</svg>
