<svg width="34" height="36" viewBox="0 0 34 36" fill="none" xmlns="http://www.w3.org/2000/svg">
<path d="M25.2656 22.1995C25.2656 21.8683 24.9969 21.5996 24.6657 21.5996H21.0657C20.7345 21.5996 20.4658 21.8683 20.4658 22.1995C20.4658 22.5307 20.7345 22.7994 21.0657 22.7994H24.6657C24.9969 22.7997 25.2656 22.5307 25.2656 22.1995Z" fill="white"/>
<path d="M22.8658 6.59996V3.59991C22.8658 3.26869 22.5971 3 22.2659 3C21.9347 3 21.666 3.26869 21.666 3.59991V6.59996C21.666 8.25402 23.0118 9.60002 24.6661 9.60002H30.066V20.9997C30.066 21.3309 30.3347 21.5996 30.6659 21.5996C30.9971 21.5996 31.2658 21.3309 31.2658 20.9997V8.99959C31.2658 8.66838 30.9971 8.39969 30.6659 8.39969H24.6661C23.6734 8.39969 22.8658 7.59214 22.8658 6.5997V6.59996Z" fill="white"/>
<path d="M24.6658 14.3994H19.8658C19.5346 14.3994 19.2659 14.6681 19.2659 14.9993C19.2659 15.3305 19.5346 15.5992 19.8658 15.5992H24.6658C24.997 15.5992 25.2657 15.3305 25.2657 14.9993C25.2657 14.6681 24.997 14.3994 24.6658 14.3994Z" fill="white"/>
<path d="M18.0656 14.9993C18.0656 14.6681 17.797 14.3994 17.4657 14.3994H13.8658C13.5346 14.3994 13.2659 14.6681 13.2659 14.9993C13.2659 15.3305 13.5346 15.5992 13.8658 15.5992H17.4657C17.797 15.5995 18.0656 15.3305 18.0656 14.9993Z" fill="white"/>
<path d="M13.8658 18C13.5346 18 13.2659 18.2687 13.2659 18.5999C13.2659 18.9311 13.5346 19.1998 13.8658 19.1998H15.0658C15.3971 19.1998 15.6658 18.9311 15.6658 18.5999C15.6658 18.2687 15.3971 18 15.0658 18H13.8658Z" fill="white"/>
<path d="M13.8658 11.9996H19.8656C20.1968 11.9996 20.4655 11.7309 20.4655 11.3997C20.4655 11.0685 20.1968 10.7998 19.8656 10.7998H13.8658C13.5346 10.7998 13.2659 11.0685 13.2659 11.3997C13.2659 11.7307 13.5346 11.9996 13.8658 11.9996Z" fill="white"/>
<path d="M17.4659 19.1998H23.4657C23.7969 19.1998 24.0656 18.9311 24.0656 18.5999C24.0656 18.2687 23.7969 18 23.4657 18H17.4659C17.1347 18 16.866 18.2687 16.866 18.5999C16.866 18.9309 17.1347 19.1998 17.4659 19.1998Z" fill="white"/>
<path d="M21.066 25.1992C20.7348 25.1992 20.4661 25.4679 20.4661 25.7991C20.4661 26.1303 20.7348 26.399 21.066 26.399H22.266C22.5973 26.399 22.866 26.1303 22.866 25.7991C22.866 25.4679 22.5973 25.1992 22.266 25.1992H21.066Z" fill="white"/>
<path d="M18.6653 21.5996H13.8653C13.5341 21.5996 13.2654 21.8683 13.2654 22.1995C13.2654 22.5307 13.5341 22.7994 13.8653 22.7994H18.6653C18.9965 22.7994 19.2652 22.5307 19.2652 22.1995C19.2652 21.8683 18.9963 21.5996 18.6653 21.5996Z" fill="white"/>
<path d="M18.6653 25.1992H13.8653C13.5341 25.1992 13.2654 25.4679 13.2654 25.7991C13.2654 26.1303 13.5341 26.399 13.8653 26.399H18.6653C18.9965 26.399 19.2652 26.1303 19.2652 25.7991C19.2652 25.4679 18.9963 25.1992 18.6653 25.1992Z" fill="white"/>
<path d="M32.9508 24.7142L31.7508 23.5141C30.8287 22.592 29.4234 22.5938 28.5024 23.5141L20.6416 31.3756C20.5294 31.4878 20.4658 31.6407 20.4658 31.7997V35.3997C20.4658 35.7309 20.7345 35.9996 21.0657 35.9996H24.6657C24.8246 35.9996 24.9776 35.936 25.0898 35.8238L32.9512 27.9624C33.907 27.0066 33.907 25.6705 32.9512 24.714L32.9508 24.7142ZM27.7266 25.9869L28.6784 26.9386L23.4655 32.1515L22.5138 31.1997L27.7266 25.9869ZM21.6655 34.7997V32.048L24.4173 34.7997H21.6655ZM25.2655 33.9515L24.3138 32.9997L29.5266 27.7869L30.4784 28.7386L25.2655 33.9515ZM32.1028 27.1141L31.3269 27.89L28.5752 25.1383L29.3511 24.3624C29.825 23.889 30.4264 23.8865 30.9028 24.3624L32.1028 25.5625C32.588 26.0486 32.588 26.6287 32.1028 27.1141Z" fill="white"/>
<path d="M18.6655 34.7992H3.06543C2.07299 34.7992 1.26544 33.9917 1.26544 32.9993V3.00001C1.26544 2.00758 2.07299 1.20003 3.06543 1.20003H22.0167L27.8407 7.02413C28.0753 7.25867 28.4545 7.25867 28.689 7.02413C28.9235 6.78959 28.9235 6.41041 28.689 6.17589L22.6891 0.175781C22.5769 0.0630315 22.424 0 22.265 0H3.065C1.41068 0 0.0649414 1.34574 0.0649414 3.00005V32.9999C0.0649414 34.654 1.41068 36 3.065 36H18.665C18.9963 36 19.265 35.7313 19.265 35.4001C19.265 35.0686 18.996 34.7997 18.665 34.7997L18.6655 34.7992Z" fill="white"/>
<path d="M18.6653 28.7998H13.8653C13.5341 28.7998 13.2654 29.0685 13.2654 29.3997C13.2654 29.7309 13.5341 29.9996 13.8653 29.9996H18.6653C18.9965 29.9996 19.2652 29.7309 19.2652 29.3997C19.2652 29.0685 18.9963 28.7998 18.6653 28.7998Z" fill="white"/>
<path d="M10.8657 11.3997C10.8657 11.0685 10.597 10.7998 10.2658 10.7998H6.66583C6.33461 10.7998 6.06592 11.0685 6.06592 11.3997V14.9997C6.06592 15.3309 6.33461 15.5996 6.66583 15.5996H10.2658C10.597 15.5996 10.8657 15.3309 10.8657 14.9997V11.3997ZM9.66588 14.3998H7.26599V11.9999H9.66588V14.3998Z" fill="white"/>
<path d="M6.66607 30H10.266C10.5972 30 10.8659 29.7313 10.8659 29.4001V25.8001C10.8659 25.4689 10.5972 25.2002 10.266 25.2002H6.66607C6.33485 25.2002 6.06616 25.4689 6.06616 25.8001V29.4001C6.06616 29.731 6.33485 30 6.66607 30ZM7.26598 26.4H9.66587L9.66612 28.7999H7.26623L7.26598 26.4Z" fill="white"/>
<path d="M7.44138 22.6234C7.55413 22.7361 7.70706 22.7991 7.86551 22.7991C7.88535 22.7991 7.90444 22.7986 7.92503 22.7961C8.10382 22.7788 8.26529 22.6816 8.36473 22.5322L10.7646 18.9322C10.9482 18.6563 10.8738 18.2836 10.5984 18.1001C10.3217 17.9158 9.95051 17.9908 9.76621 18.2663L7.77234 21.2573L7.08957 20.575C6.85504 20.3405 6.47585 20.3405 6.24133 20.575C6.0068 20.8096 6.0068 21.1888 6.24133 21.4233L7.44138 22.6234Z" fill="white"/>
</svg>
