<svg width="27" height="35" viewBox="0 0 27 35" fill="none" xmlns="http://www.w3.org/2000/svg">
<path d="M0 0V35H26.2504V0H0ZM25.3751 34.1255H0.875262V0.875263L25.3751 0.874969V34.1255Z" fill="white"/>
<path d="M2.625 3.0625H20.125V3.93761H2.625V3.0625Z" fill="white"/>
<path d="M4.72495 7.7002H2.53027V14.7005H4.72495V7.7002ZM3.84984 13.8254H3.4054V8.57531H3.84281L3.84984 13.8254Z" fill="white"/>
<path d="M7.65828 11.2002H5.47095V14.7003H7.65858L7.65828 11.2002ZM6.78316 13.8252H6.34576V12.0753H6.78316V13.8252Z" fill="white"/>
<path d="M8.31226 8.5752V14.7004H10.4999V8.5752H8.31226ZM9.62477 13.8253H9.18737V9.45031H9.62477V13.8253Z" fill="white"/>
<path d="M11.158 7.7002V14.7005H13.3456V7.7002H11.158ZM12.4705 13.8254H12.0331V8.57531H12.4705V13.8254Z" fill="white"/>
<path d="M19.6877 11.6377H24.0627C24.0618 10.4778 23.6007 9.36535 22.7803 8.54506C21.96 7.725 20.8479 7.2636 19.6877 7.2627V11.6377ZM20.5629 8.24971C21.1678 8.40615 21.7201 8.72169 22.1619 9.16352C22.604 9.60562 22.9195 10.1576 23.0757 10.7628H20.5629V8.24971Z" fill="white"/>
<path d="M15.5334 12.0756C15.5736 13.377 16.2908 14.5629 17.4252 15.2022C18.5593 15.8418 19.9454 15.8418 21.0798 15.2022C22.2139 14.563 22.9314 13.377 22.9712 12.0756H19.2508V8.3584C18.2652 8.35928 17.3201 8.75128 16.6234 9.44824C15.9265 10.1449 15.5344 11.0901 15.5336 12.0756H15.5334ZM21.956 12.9504C21.6525 13.8944 20.8794 14.6118 19.9155 14.8448C18.9518 15.0774 17.9364 14.7918 17.2354 14.0907C16.5343 13.3895 16.2487 12.3741 16.4815 11.4106C16.7142 10.447 17.432 9.67384 18.3756 9.37001V12.9504H21.956Z" fill="white"/>
<path d="M2.625 21H5.25004V21.8751H2.625V21Z" fill="white"/>
<path d="M6.99976 21H24.0625V21.8751H6.99976V21Z" fill="white"/>
<path d="M2.625 24.5H5.25004V25.3751H2.625V24.5Z" fill="white"/>
<path d="M6.99976 24.5H24.0625V25.3751H6.99976V24.5Z" fill="white"/>
<path d="M2.625 28H5.25004V28.8751H2.625V28Z" fill="white"/>
<path d="M6.99976 28H24.0625V28.8751H6.99976V28Z" fill="white"/>
</svg>
