<svg width="33" height="33" viewBox="0 0 33 33" fill="none" xmlns="http://www.w3.org/2000/svg">
<path d="M19.2224 32.667H7.88868C7.71144 32.6681 7.54113 32.5985 7.41546 32.4737L6.08221 31.1404H6.08198C5.95721 31.0145 5.88779 30.8442 5.88868 30.667V26.667H7.22194V30.3936L8.16211 31.3337H19.2221L19.2224 32.667Z" fill="white"/>
<path d="M27.2224 14.0004H25.8889V2.94043L24.949 2.00026H8.16211L7.22217 2.94043V7.33375H5.88868V2.66701C5.88779 2.48977 5.95721 2.31946 6.08198 2.19357L7.41524 0.860308H7.41546C7.54113 0.735531 7.71145 0.665891 7.88868 0.667005H25.2224C25.3996 0.665889 25.5699 0.735531 25.6956 0.860308L27.0289 2.19357H27.0291C27.1539 2.31946 27.2233 2.48977 27.2224 2.66701L27.2224 14.0004Z" fill="white"/>
<path d="M20.5556 4.66744H12.5556C12.3045 4.66677 12.0752 4.52503 11.9623 4.30069L10.629 1.63395L11.8157 1.03418L12.969 3.33418H20.1422L21.2955 1.03418L22.4889 1.62749L21.1556 4.29424V4.29401C21.0433 4.52303 20.8105 4.6679 20.5556 4.66745V4.66744Z" fill="white"/>
<path d="M31.0292 28.4741L30.0893 27.5341L31.2225 26.394V17.334C31.2225 16.9657 30.9239 16.6672 30.5558 16.6672C30.1877 16.6672 29.889 16.9657 29.889 17.334V20.6672H28.5558V17.334C28.5558 16.6194 28.937 15.9592 29.5558 15.6018C30.1745 15.2447 30.937 15.2447 31.5558 15.6018C32.1745 15.9592 32.5558 16.6195 32.5558 17.334V26.6671C32.5569 26.8443 32.4873 27.0146 32.3625 27.1405L31.0292 28.4741Z" fill="white"/>
<path d="M22.0818 28.4744L20.7486 27.1412C20.6238 27.0153 20.5542 26.845 20.5553 26.6677V25.6077L18.0819 23.1342V23.1345C17.9589 23.0101 17.8894 22.8427 17.8885 22.6677V20.001C17.8885 19.9211 17.9285 18.001 21.2218 18.001V19.3342C19.7151 19.3342 19.2218 19.7943 19.2218 20.0409V22.3943L21.6952 24.8677C21.8184 24.9918 21.8879 25.1595 21.8885 25.3345V26.3945L23.0285 27.5345L22.0818 28.4744Z" fill="white"/>
<path d="M21.8887 22.6668H20.5554V12C20.5554 11.2855 20.9367 10.6252 21.5554 10.268C22.1742 9.91066 22.9367 9.91066 23.5554 10.268C24.1742 10.6252 24.5554 11.2855 24.5554 12V20.6668H23.2222V12C23.2222 11.6319 22.9235 11.3335 22.5554 11.3335C22.1873 11.3335 21.8887 11.6319 21.8887 12V22.6668Z" fill="white"/>
<path d="M27.2224 20.667H25.8889V16.667C25.8889 16.2989 25.5905 16.0002 25.2224 16.0002C24.8541 16.0002 24.5557 16.2989 24.5557 16.667V20.667H23.2224V16.667C23.2224 15.9524 23.6034 15.2922 24.2224 14.9348C24.8412 14.5777 25.6034 14.5777 26.2224 14.9348C26.8412 15.2922 27.2224 15.9525 27.2224 16.667V20.667Z" fill="white"/>
<path d="M29.8887 20.667H28.5554V16.667C28.5554 16.2989 28.257 16.0002 27.8887 16.0002C27.5206 16.0002 27.2222 16.2989 27.2222 16.667V20.667H25.8887V16.667C25.8887 15.9524 26.2699 15.2922 26.8887 14.9348C27.5076 14.5777 28.2699 14.5777 28.8887 14.9348C29.5076 15.2922 29.8887 15.9525 29.8887 16.667V20.667Z" fill="white"/>
<path d="M31.8887 32.6672H21.2224C20.8541 32.6672 20.5557 32.3688 20.5557 32.0005V28.0005C20.5557 27.6324 20.8541 27.334 21.2224 27.334H31.8887C32.0655 27.334 32.2351 27.4041 32.3601 27.5291C32.4851 27.6543 32.5554 27.8237 32.5554 28.0005V32.0005C32.5554 32.1773 32.4851 32.3469 32.3601 32.4719C32.2351 32.5969 32.0655 32.6672 31.8887 32.6672V32.6672ZM21.8887 31.334H31.2224V28.6672H21.8887V31.334Z" fill="white"/>
<path d="M11.8887 16.6669C7.73529 16.6669 5.60867 15.2803 5.52181 15.2203H5.52203C5.33565 15.0975 5.22315 14.8899 5.22203 14.6669V9.62031C5.214 9.40736 5.30841 9.20334 5.47583 9.07165C5.64324 8.93973 5.86355 8.89598 6.06868 8.95357L11.8887 10.6669L17.7087 9.00688C17.9138 8.94929 18.1341 8.99304 18.3015 9.12496C18.469 9.25666 18.5634 9.46068 18.5553 9.67362V14.6669C18.5542 14.8899 18.4415 15.0975 18.2553 15.2203C18.1687 15.2803 16.042 16.6669 11.8885 16.6669H11.8887ZM6.55541 14.2736C8.22975 15.0272 10.0536 15.3897 11.8887 15.3337C13.7239 15.3895 15.5478 15.027 17.2222 14.2736V10.5002L12.0688 12.0002C11.9489 12.0345 11.8219 12.0345 11.702 12.0002L6.55541 10.5002V14.2736Z" fill="white"/>
<path d="M17.2224 9.33398H18.5557V9.62059H17.2224V9.33398Z" fill="white"/>
<path d="M5.22241 9.33398H6.55567V9.62059H5.22241V9.33398Z" fill="white"/>
<path d="M11.8887 12.0003C11.8291 12.0085 11.7684 12.0085 11.7088 12.0003L2.37564 9.33352V9.33374C2.09104 9.25071 1.89551 8.98999 1.89551 8.69357C1.89551 8.39737 2.09104 8.13665 2.37564 8.05363L11.7088 5.38689V5.38711C11.8287 5.35273 11.9557 5.35273 12.0755 5.38711L21.4087 8.05385V8.05363C21.693 8.13666 21.8886 8.39738 21.8886 8.69357C21.8886 8.99 21.693 9.25071 21.4087 9.33374L12.0755 12.0005V12.0003C12.0135 12.0092 11.9507 12.0092 11.8887 12.0003H11.8887ZM4.98183 8.66701L11.8887 10.667L18.7955 8.66701L11.8887 6.66701L4.98183 8.66701Z" fill="white"/>
<path d="M2.55554 14.667C2.02519 14.667 1.51646 14.4563 1.14126 14.0813C0.766256 13.7061 0.555542 13.1973 0.555542 12.667C0.555542 12.1366 0.766256 11.6279 1.14126 11.2527C1.51648 10.8777 2.0252 10.667 2.55554 10.667C3.08589 10.667 3.59463 10.8777 3.96983 11.2527C4.34483 11.6279 4.55554 12.1366 4.55554 12.667C4.55554 13.1973 4.34483 13.7061 3.96983 14.0813C3.59461 14.4563 3.08589 14.667 2.55554 14.667ZM2.55554 12.0002C2.2859 12.0002 2.04282 12.1628 1.93971 12.4119C1.83637 12.661 1.89351 12.9478 2.08413 13.1384C2.27475 13.3291 2.56159 13.3862 2.8107 13.2828C3.05981 13.1797 3.22231 12.9366 3.22231 12.667C3.22231 12.4902 3.15199 12.3206 3.02699 12.1956C2.90199 12.0706 2.73235 12.0003 2.55557 12.0003L2.55554 12.0002Z" fill="white"/>
<path d="M1.88879 8.66699H3.22205V11.3337H1.88879V8.66699Z" fill="white"/>
<path d="M11.8886 30C11.7114 30.0011 11.5411 29.9315 11.4154 29.8067L8.94869 27.3335H1.22241C0.854104 27.3335 0.555664 27.0348 0.555664 26.6667V18.6667C0.555664 18.2987 0.854104 18 1.22241 18H15.8887C16.0655 18 16.2351 18.0703 16.3601 18.1953C16.4851 18.3203 16.5554 18.49 16.5554 18.6667V26.6667C16.5554 26.8435 16.4851 27.0132 16.3601 27.1382C16.2351 27.2632 16.0655 27.3335 15.8887 27.3335H12.5554V29.3335C12.5554 29.5103 12.4851 29.6797 12.3601 29.8049C12.2351 29.9299 12.0655 30 11.8887 30L11.8886 30ZM1.88865 26H9.22236C9.3996 25.9991 9.5699 26.0685 9.69557 26.1933L11.2224 27.7268V26.6667C11.2224 26.2986 11.5208 26 11.8889 26H15.2221L15.2224 19.3337H1.88865L1.88865 26Z" fill="white"/>
<path d="M5.88867 14.667H7.22193V18.667H5.88867V14.667Z" fill="white"/>
<path d="M3.22241 20.667H4.55567V22.0002H3.22241V20.667Z" fill="white"/>
<path d="M5.88867 20.667H13.8887V22.0002H5.88867V20.667Z" fill="white"/>
<path d="M3.22241 23.334H13.8893V24.6672H3.22241V23.334Z" fill="white"/>
</svg>
